<?xml version="1.0" encoding="UTF-8" standalone="no"?>
<!-- Created with Inkscape (http://www.inkscape.org/) -->

<svg
   width="400"
   height="400"
   viewBox="0 0 105.83333 105.83333"
   version="1.1"
   id="svg1"
   inkscape:export-filename="..\..\..\svgs\popcorn.svg"
   inkscape:export-xdpi="96"
   inkscape:export-ydpi="96"
   inkscape:version="1.3.2 (091e20e, 2023-11-25, custom)"
   sodipodi:docname="Popcorn.svg"
   xmlns:inkscape="http://www.inkscape.org/namespaces/inkscape"
   xmlns:sodipodi="http://sodipodi.sourceforge.net/DTD/sodipodi-0.dtd"
   xmlns="http://www.w3.org/2000/svg"
   xmlns:svg="http://www.w3.org/2000/svg">
  <sodipodi:namedview
     id="namedview1"
     pagecolor="#ffffff"
     bordercolor="#000000"
     borderopacity="0.25"
     inkscape:showpageshadow="2"
     inkscape:pageopacity="0.0"
     inkscape:pagecheckerboard="0"
     inkscape:deskcolor="#d1d1d1"
     inkscape:document-units="mm"
     inkscape:zoom="1.4485269"
     inkscape:cx="198.13232"
     inkscape:cy="206.07142"
     inkscape:window-width="1920"
     inkscape:window-height="1009"
     inkscape:window-x="1912"
     inkscape:window-y="-8"
     inkscape:window-maximized="1"
     inkscape:current-layer="layer1" />
  <defs
     id="defs1" />
  <g
     inkscape:label="Layer 1"
     inkscape:groupmode="layer"
     id="layer1">
    <path
       style="display:none;fill:#a0a0a0;stroke-width:2.03"
       d="M 78.657147,70.649361 60.704203,63.803992 56.312836,24.669155 78.657148,32.418627 Z"
       id="path1"
       sodipodi:nodetypes="ccccc" />
    <path
       style="display:none;fill:#a0a0a0;stroke-width:2.03"
       d="m 78.657145,70.649361 16.661369,-6.457895 5.682946,-39.522311 -22.344313,7.74947 -2e-6,38.230736"
       id="path2"
       sodipodi:nodetypes="ccccc" />
    <path
       d="m 100.13033,22.412906 c -2.67938,0.01069 -5.08087,1.1444 -6.06578,2.863908 -0.23275,-0.04289 -0.46767,-0.06536 -0.70332,-0.06718 -2.59301,1.65e-4 -4.69548,2.445852 -4.69532,5.461682 0.0108,0.132035 0.0259,0.263526 0.045,0.394291 -0.52059,-0.216421 -1.07285,-0.328517 -1.62987,-0.330212 -2.549834,1.95e-4 -4.617114,2.257811 -4.617294,5.042586 -1.7e-4,0.885278 0.21338,1.755068 0.61856,2.52181 -0.4051,0.766599 -0.61865,1.636185 -0.61856,2.521293 -4e-5,1.023429 0.28036,1.974792 0.76016,2.76934 l 1.46916,0.0041 c -0.3128,-0.662418 -0.49405,-1.414091 -0.49403,-2.215885 -8e-5,-0.838099 0.19735,-1.661569 0.57206,-2.387451 -0.37479,-0.726022 -0.57221,-1.549194 -0.57206,-2.387452 1.7e-4,-2.636873 1.912524,-4.774718 4.271064,-4.774902 0.51523,0.0017 1.02587,0.107198 1.5074,0.312126 -0.0176,-0.123822 -0.0313,-0.248082 -0.0413,-0.373104 -1.5e-4,-2.855657 1.9444,-5.171104 4.34289,-5.171261 0.21796,0.0017 0.43532,0.02244 0.6506,0.06304 0.91103,-1.628182 3.13214,-2.701325 5.61051,-2.711462 1.61489,0.0013 3.16262,0.457136 4.30051,1.266589 0.71393,-0.792487 1.68062,-1.246923 2.69389,-1.266589 1.25663,7.09e-4 2.43566,0.669843 3.1657,1.796789 0.70423,-0.286377 1.45298,-0.439956 2.2102,-0.453202 2.78798,0.0027 5.24263,1.889069 6.03426,4.636927 0.0881,-0.01318 0.17659,-0.0241 0.2651,-0.03307 3.47906,-1.43e-4 6.30027,3.152837 6.30039,7.042464 -0.013,0.844598 -0.16181,1.680286 -0.43925,2.465999 1.1405,1.205092 1.80285,2.725287 1.90273,4.315499 l 1.75596,0.0052 c -0.002,-1.83482 -0.74106,-3.607367 -2.07946,-4.988843 0.29995,-0.829783 0.46091,-1.712003 0.47491,-2.603975 -1.3e-4,-4.107794 -3.04973,-7.437939 -6.81096,-7.43779 -0.0957,0.0095 -0.19105,0.02121 -0.28628,0.03514 -0.85583,-2.901987 -3.51006,-4.894552 -6.52415,-4.897376 -0.81864,0.01399 -1.62818,0.176083 -2.38952,0.478523 -0.78925,-1.190156 -2.06399,-1.896809 -3.42253,-1.897558 -1.09546,0.02077 -2.14065,0.500965 -2.91249,1.337903 -1.23018,-0.854855 -2.90294,-1.336528 -4.6488,-1.337903 z"
       style="fill:#0c181a;fill-opacity:0.4;stroke-width:2.00322"
       id="path70"
       inkscape:export-filename="popcorn.svg"
       inkscape:export-xdpi="96"
       inkscape:export-ydpi="96" />
    <path
       d="m 113.1639,30.498804 c -1.45595,-0.301068 -2.97153,0.01879 -4.18171,0.882458 -0.53541,-0.490031 -1.18814,-0.826629 -1.89332,-0.976354 -1.88828,-0.393954 -3.80559,0.606199 -4.61974,2.409836 -0.25356,-0.152929 -0.53084,-0.262507 -0.82045,-0.324218 -1.43924,-0.303874 -2.85233,0.616664 -3.15602,2.055953 -0.1914,0.906511 0.10345,1.802055 0.70721,2.417142 0.0398,-0.188594 0.37766,-0.232779 0.37503,-0.433906 -0.0191,-1.46042 0.50337,-2.787343 1.75384,-2.523327 0.2896,0.06171 1.20225,-0.02461 1.4558,0.128314 0.81416,-1.803638 2.0961,-2.607886 3.98439,-2.213932 0.70518,0.149724 1.3579,0.486323 1.89332,0.976355 1.21017,-0.863665 2.72575,-1.183527 4.1817,-0.882459 1.9023,0.401737 3.43574,1.806025 4.00288,3.665719 0.3,-0.01091 0.60023,0.01402 0.89435,0.07416 1.8414,0.388558 2.5564,2.301908 2.04946,4.194457 -0.0521,0.194337 0.40517,0.240377 0.36306,0.44012 0.39773,-0.464784 0.68853,-1.032887 0.82382,-1.673587 0.43102,-2.041602 -0.87475,-4.04604 -2.91639,-4.476852 -0.29412,-0.06014 -0.59435,-0.08507 -0.89435,-0.07416 -0.56714,-1.859693 -2.10059,-3.263981 -4.00288,-3.665719 z"
       style="fill:#0c181a;fill-opacity:0.4;stroke-width:2.03"
       id="path45"
       sodipodi:nodetypes="cccccccscccccccsccccc" />
    <path
       d="m 97.91069,35.130487 c -0.11459,-0.01711 -0.23209,-0.03138 -0.35256,-0.04322 -3.855,-0.379752 -4.87464,2.484034 -4.87464,2.484034 0,0 -1.2757,-1.068196 -3.63654,-0.347487 -2.36083,0.720708 -2.81178,4.833321 -2.81178,4.833321 l 0.38606,0.144129 c 0.32246,-1.211571 1.02932,-2.939606 2.4965,-3.368311 2.31751,-0.677172 3.57682,0.348152 3.57682,0.348152 0,0 0.98864,-2.729143 4.77997,-2.349167 3.79132,0.379977 4.60587,3.397738 4.60587,3.397738 0,0 0.89785,-0.952177 3.29993,-0.566591 1.45744,0.233934 1.9975,1.798622 2.19902,2.994829 l 0.34546,-0.05253 c 0,0 0.10342,-4.198187 -2.3383,-4.590541 -2.44172,-0.392355 -3.35987,0.60906 -3.35987,0.60906 0,0 -0.76345,-2.962959 -4.31594,-3.493406 z"
       style="fill:#0c181a;fill-opacity:0.4;stroke-width:3.24087"
       id="path47" />
    <path
       d="m 83.222826,43.590425 5.209504,39.070483 34.61442,0.387574 5.41052,-37.439576 0.27234,-1.884122 -1.75597,-0.0052 -42.280614,-0.125057 -1.46916,-0.0041 z m 2.369374,1.630391 0.36018,10e-4 40.40786,0.121956 -0.3116,2.206067 -0.27441,1.944584 -4.50515,31.92415 L 90.2591,81.063039 85.64284,45.610423 Z"
       style="fill:#0c181a;fill-opacity:0.4;stroke-width:2.03"
       id="path71" />
    <rect
       style="fill:#0c181a;fill-opacity:0.4;stroke-width:2.03"
       id="rect72"
       width="1.2978939"
       height="36.562199"
       x="92.572502"
       y="51.23357"
       transform="rotate(-3.7202833)" />
    <path
       d="m -5.4606789,22.412905 c -2.679383,0.01069 -5.0808731,1.1444 -6.0657831,2.863908 -0.23275,-0.04289 -0.46767,-0.06536 -0.70332,-0.06718 -2.59301,1.65e-4 -4.69548,2.445852 -4.69532,5.461682 0.0108,0.132035 0.0259,0.263526 0.045,0.394291 -0.52059,-0.216421 -1.07285,-0.328517 -1.62987,-0.330212 -2.54983,1.95e-4 -4.61711,2.257811 -4.61729,5.042586 -1.7e-4,0.885278 0.21338,1.755068 0.61856,2.52181 -0.4051,0.766599 -0.61865,1.636185 -0.61856,2.521293 -4e-5,1.023429 0.28036,1.974792 0.76016,2.76934 l 1.46916,0.0041 c -0.3128,-0.662418 -0.49405,-1.414091 -0.49403,-2.215885 -8e-5,-0.838099 0.19735,-1.661569 0.57206,-2.387451 -0.37479,-0.726022 -0.57221,-1.549194 -0.57206,-2.387452 1.7e-4,-2.636873 1.91252,-4.774718 4.27106,-4.774902 0.51523,0.0017 1.02587,0.107198 1.5074,0.312126 -0.0176,-0.123822 -0.0313,-0.248082 -0.0413,-0.373104 -1.5e-4,-2.855657 1.9444,-5.171104 4.34289,-5.171261 0.21796,0.0017 0.43532,0.02244 0.6506,0.06304 0.9110301,-1.628182 3.1321401,-2.701325 5.6105131,-2.711462 1.61489,0.0013 3.16262,0.457136 4.30051,1.266589 0.71393,-0.792487 1.68062,-1.246923 2.69389,-1.266589 1.25663,7.09e-4 2.43566,0.669843 3.1657,1.796789 0.70423,-0.286377 1.45298,-0.439956 2.2102,-0.453202 2.7879799,0.0027 5.2426299,1.889069 6.0342599,4.636927 0.0881,-0.01318 0.17659,-0.0241 0.2651,-0.03307 3.47906,-1.43e-4 6.30027,3.152837 6.30039,7.042464 -0.013,0.844598 -0.16181,1.680286 -0.43925,2.465999 1.1405,1.205092 1.80285,2.725287 1.90273,4.315499 l 1.75596,0.0052 c -0.002,-1.83482 -0.74106,-3.607367 -2.07946,-4.988843 0.29995,-0.829783 0.46091,-1.712003 0.47491,-2.603975 -1.3e-4,-4.107794 -3.04973,-7.437939 -6.81096,-7.43779 -0.0957,0.0095 -0.19105,0.02121 -0.28628,0.03514 -0.85583,-2.901987 -3.51006,-4.894552 -6.5241499,-4.897376 -0.81864,0.01399 -1.62818,0.176083 -2.38952,0.478523 -0.78925,-1.190156 -2.06399,-1.896809 -3.42253,-1.897558 -1.09546,0.02077 -2.14065,0.500965 -2.91249,1.337903 -1.23018,-0.854855 -2.90294,-1.336528 -4.6488,-1.337903 z"
       style="fill:#0c181a;fill-opacity:0.4;stroke-width:2.00322"
       id="path70-5"
       inkscape:export-filename="popcorn.svg"
       inkscape:export-xdpi="96"
       inkscape:export-ydpi="96" />
    <path
       d="m 7.5728911,30.498803 c -1.45595,-0.301068 -2.97153,0.01879 -4.18171,0.882458 -0.53541,-0.490031 -1.18814,-0.826629 -1.89332,-0.976354 -1.88828,-0.393954 -3.80559,0.606199 -4.61974,2.409836 -0.25356,-0.152929 -0.53084,-0.262507 -0.82045,-0.324218 -1.43924,-0.303874 -2.852333,0.616664 -3.156023,2.055953 -0.1914,0.906511 0.10345,1.802055 0.70721,2.417142 0.0398,-0.188594 0.37766,-0.232779 0.37503,-0.433906 -0.0191,-1.46042 0.503373,-2.787343 1.753843,-2.523327 0.2896,0.06171 1.20225,-0.02461 1.4558,0.128314 0.81416,-1.803638 2.0961,-2.607886 3.98439,-2.213932 0.70518,0.149724 1.3579,0.486323 1.89332,0.976355 1.21017,-0.863665 2.72575,-1.183527 4.1817,-0.882459 1.9023,0.401737 3.4357399,1.806025 4.0028799,3.665719 0.3,-0.01091 0.60023,0.01402 0.89435,0.07416 1.8414,0.388558 2.5564,2.301908 2.04946,4.194457 -0.0521,0.194337 0.40517,0.240377 0.36306,0.44012 0.39773,-0.464784 0.68853,-1.032887 0.82382,-1.673587 0.43102,-2.041602 -0.87475,-4.04604 -2.91639,-4.476852 -0.29412,-0.06014 -0.59435,-0.08507 -0.89435,-0.07416 -0.56714,-1.859693 -2.1005899,-3.263981 -4.0028799,-3.665719 z"
       style="fill:#0c181a;fill-opacity:0.4;stroke-width:2.03"
       id="path45-66"
       sodipodi:nodetypes="cccccccscccccccsccccc" />
    <path
       d="m -7.6803219,35.130486 c -0.11459,-0.01711 -0.23209,-0.03138 -0.35256,-0.04322 -3.8550001,-0.379752 -4.8746401,2.484034 -4.8746401,2.484034 0,0 -1.2757,-1.068196 -3.63654,-0.347487 -2.36083,0.720708 -2.81178,4.833321 -2.81178,4.833321 l 0.38606,0.144129 c 0.32246,-1.211571 1.02932,-2.939606 2.4965,-3.368311 2.31751,-0.677172 3.57682,0.348152 3.57682,0.348152 0,0 0.98864,-2.729143 4.7799701,-2.349167 3.791323,0.379977 4.605873,3.397738 4.605873,3.397738 0,0 0.89785,-0.952177 3.29993,-0.566591 1.45744,0.233934 1.9975,1.798622 2.19902,2.994829 l 0.34546,-0.05253 c 0,0 0.10342,-4.198187 -2.3383,-4.590541 -2.44172,-0.392355 -3.35987,0.60906 -3.35987,0.60906 0,0 -0.76345,-2.962959 -4.315943,-3.493406 z"
       style="fill:#0c181a;fill-opacity:0.4;stroke-width:3.24087"
       id="path47-77" />
    <path
       d="m -22.368182,43.590424 5.2095,39.070483 34.614423,0.387574 5.41052,-37.439576 0.27234,-1.884122 -1.75597,-0.0052 -42.280613,-0.125057 -1.46916,-0.0041 z m 2.36937,1.630391 0.36018,10e-4 40.407863,0.121956 -0.3116,2.206067 -0.27441,1.944584 -4.50515,31.92415 -31.009983,-0.355534 -4.61626,-35.452616 z"
       style="fill:#0c181a;fill-opacity:0.4;stroke-width:2.03"
       id="path71-6" />
    <rect
       style="fill:#0c181a;fill-opacity:0.4;stroke-width:2.03"
       id="rect72-5-3"
       width="1.2978939"
       height="36.562199"
       x="-13.602961"
       y="44.329765"
       transform="matrix(-0.99789271,-0.06488558,-0.06488558,0.99789271,0,0)" />
    <path
       d="m 30.047821,-15.600811 5.209501,39.070483 34.614424,0.387574 5.41052,-37.439576 0.27234,-1.884122 -1.75597,-0.0052 -42.280621,-0.125057 -1.469161,-0.0041 z m 2.369364,1.630391 0.360185,0.001 40.407866,0.121956 -0.3116,2.206067 -0.27441,1.9445839 -4.50515,31.9241501 -31.009992,-0.355534 -4.616256,-35.452616 z"
       style="fill:#0c181a;fill-opacity:0.4;stroke-width:2.03"
       id="path71-0" />
    <rect
       style="fill:#0c181a;fill-opacity:0.4;stroke-width:2.03"
       id="rect72-1"
       width="1.2978939"
       height="36.562199"
       x="43.350212"
       y="-11.283224"
       transform="rotate(-3.7202833)" />
    <rect
       style="fill:#0c181a;fill-opacity:0.4;stroke-width:2.03"
       id="rect72-5-6"
       width="1.2978939"
       height="36.562199"
       x="-62.067856"
       y="-18.137783"
       transform="matrix(-0.99789271,-0.06488558,-0.06488558,0.99789271,0,0)" />
    <path
       d="m 46.955314,69.059302 c -2.679376,0.01069 -5.080859,1.1444 -6.065776,2.863908 -0.232745,-0.04289 -0.467672,-0.06536 -0.703316,-0.06718 -2.593013,1.65e-4 -4.695482,2.445852 -4.695321,5.461682 0.01084,0.132035 0.02589,0.263526 0.04496,0.394291 -0.520588,-0.216421 -1.072849,-0.328517 -1.629875,-0.330212 -2.549828,1.95e-4 -4.61711,2.257811 -4.617289,5.042586 -1.7e-4,0.885278 0.213386,1.755068 0.618567,2.52181 -0.405103,0.766599 -0.618651,1.636185 -0.618567,2.521293 -3.3e-5,1.023429 0.280359,1.974792 0.76016,2.76934 l 1.469161,0.0041 c -0.312795,-0.662418 -0.494052,-1.414091 -0.494026,-2.215885 -7.8e-5,-0.838099 0.197344,-1.661569 0.572058,-2.387451 -0.374785,-0.726022 -0.572214,-1.549194 -0.572058,-2.387452 1.66e-4,-2.636873 1.912516,-4.774718 4.271057,-4.774902 0.515236,0.0017 1.025867,0.107198 1.507401,0.312126 -0.01764,-0.123822 -0.03127,-0.248082 -0.04134,-0.373104 -1.49e-4,-2.855657 1.944404,-5.171104 4.342888,-5.171261 0.217967,0.0017 0.435321,0.02244 0.650606,0.06304 0.911029,-1.628182 3.13214,-2.701325 5.61051,-2.711462 1.61489,0.0013 3.16262,0.457136 4.300512,1.266589 0.71393,-0.792487 1.68062,-1.246923 2.69389,-1.266589 1.25663,7.09e-4 2.43566,0.669843 3.1657,1.796789 0.70423,-0.286377 1.45298,-0.439956 2.2102,-0.453202 2.78798,0.0027 5.24263,1.889069 6.03426,4.636927 0.0881,-0.01318 0.17659,-0.0241 0.2651,-0.03307 3.47906,-1.43e-4 6.30027,3.152837 6.30039,7.042464 -0.013,0.844598 -0.16181,1.680286 -0.43925,2.465999 1.1405,1.205092 1.80285,2.725287 1.90273,4.315499 l 1.75596,0.0052 c -0.002,-1.83482 -0.74106,-3.607367 -2.07946,-4.988843 0.29995,-0.829783 0.46091,-1.712003 0.47491,-2.603975 -1.3e-4,-4.107794 -3.04973,-7.437939 -6.81096,-7.43779 -0.0957,0.0095 -0.19105,0.02121 -0.28628,0.03514 -0.85583,-2.901987 -3.51006,-4.894552 -6.52415,-4.897376 -0.81864,0.01399 -1.62818,0.176083 -2.38952,0.478523 -0.78925,-1.190156 -2.06399,-1.896809 -3.42253,-1.897558 -1.09546,0.02077 -2.14065,0.500965 -2.91249,1.337903 -1.230182,-0.854855 -2.902952,-1.336528 -4.648812,-1.337903 z"
       style="fill:#0c181a;fill-opacity:0.4;stroke-width:2.00322"
       id="path70-8-7"
       inkscape:export-filename="popcorn.svg"
       inkscape:export-xdpi="96"
       inkscape:export-ydpi="96" />
    <path
       d="m 59.988896,77.1452 c -1.45595,-0.301068 -2.97153,0.01879 -4.18171,0.882458 -0.53541,-0.490031 -1.18814,-0.826629 -1.89332,-0.976354 -1.88828,-0.393954 -3.805592,0.606199 -4.619742,2.409836 -0.25356,-0.152929 -0.53085,-0.262507 -0.82045,-0.324218 -1.43925,-0.303874 -2.852336,0.616664 -3.156023,2.055953 -0.191396,0.906511 0.103448,1.802055 0.707213,2.417142 0.0398,-0.188594 0.37766,-0.232779 0.37503,-0.433906 -0.0191,-1.46042 0.50337,-2.787343 1.75383,-2.523327 0.28961,0.06171 1.20226,-0.02461 1.45581,0.128314 0.81416,-1.803638 2.096102,-2.607886 3.984392,-2.213932 0.70518,0.149724 1.3579,0.486323 1.89332,0.976355 1.21017,-0.863665 2.72575,-1.183527 4.1817,-0.882459 1.9023,0.401737 3.43574,1.806025 4.00288,3.665719 0.3,-0.01091 0.60023,0.01402 0.89435,0.07416 1.8414,0.388558 2.5564,2.301908 2.04946,4.194457 -0.0521,0.194337 0.40517,0.240377 0.36306,0.44012 0.39773,-0.464784 0.68853,-1.032887 0.82382,-1.673587 0.43102,-2.041602 -0.87475,-4.04604 -2.91639,-4.476852 -0.29412,-0.06014 -0.59435,-0.08507 -0.89435,-0.07416 -0.56714,-1.859693 -2.10059,-3.263981 -4.00288,-3.665719 z"
       style="fill:#0c181a;fill-opacity:0.4;stroke-width:2.03"
       id="path45-6-3"
       sodipodi:nodetypes="cccccccscccccccsccccc" />
    <path
       d="m 44.735682,81.776883 c -0.114596,-0.01711 -0.232087,-0.03138 -0.352559,-0.04322 -3.855002,-0.379752 -4.87464,2.484034 -4.87464,2.484034 0,0 -1.275707,-1.068196 -3.636542,-0.347487 -2.360835,0.720708 -2.811777,4.833321 -2.811777,4.833321 l 0.386053,0.144129 c 0.322465,-1.211571 1.029327,-2.939606 2.496502,-3.368311 2.317509,-0.677172 3.576823,0.348152 3.576823,0.348152 0,0 0.98864,-2.729143 4.779966,-2.349167 3.791326,0.379977 4.605866,3.397738 4.605866,3.397738 0,0 0.89786,-0.952177 3.299942,-0.566591 1.45744,0.233934 1.9975,1.798622 2.19902,2.994829 l 0.34546,-0.05253 c 0,0 0.10342,-4.198187 -2.3383,-4.590541 -2.441722,-0.392355 -3.359872,0.60906 -3.359872,0.60906 0,0 -0.76345,-2.962959 -4.315943,-3.493406 z"
       style="fill:#0c181a;fill-opacity:0.4;stroke-width:3.24087"
       id="path47-7-6" />
    <path
       d="m 30.047823,90.236821 5.209501,39.070479 34.614422,0.38758 5.41052,-37.439578 0.27234,-1.884122 -1.75597,-0.0052 -42.280619,-0.125057 -1.469161,-0.0041 z m 2.369364,1.630391 0.360185,0.001 40.407864,0.121956 -0.3116,2.206067 -0.27441,1.944584 -4.50515,31.924151 -31.00999,-0.35554 -4.616256,-35.452611 z"
       style="fill:#0c181a;fill-opacity:0.4;stroke-width:2.03"
       id="path71-0-1" />
    <rect
       style="fill:#0c181a;fill-opacity:0.4;stroke-width:2.03"
       id="rect72-1-1"
       width="1.2978939"
       height="36.562199"
       x="36.48288"
       y="94.331375"
       transform="rotate(-3.7202833)" />
    <rect
       style="fill:#0c181a;fill-opacity:0.4;stroke-width:2.03"
       id="rect72-5-6-1"
       width="1.2978939"
       height="36.562199"
       x="-68.935196"
       y="87.476822"
       transform="matrix(-0.99789271,-0.06488558,-0.06488558,0.99789271,0,0)" />
  </g>
</svg>
